<svg width="802" height="280" viewBox="0 0 802 280" fill="none" xmlns="http://www.w3.org/2000/svg">
<path d="M16.116 152.572C17.9733 149.724 18.9019 148.3 19.9783 147.699C21.0244 147.115 21.9037 146.949 23.091 147.11C24.3126 147.277 25.8898 148.4 29.0442 150.646C29.851 151.221 30.6816 151.786 31.5362 152.341C35.5499 154.826 39.7547 157.119 44.1506 159.222C48.7377 161.133 53.4203 162.662 58.1985 163.809C63.1679 164.956 68.1372 165.529 73.1066 165.529C80.3694 165.529 86.1033 164.096 90.3081 161.229C94.704 158.362 96.9976 154.444 97.1887 149.474C97.1887 145.078 95.2774 141.542 91.4549 138.867C87.8234 136.191 82.1851 132.942 74.54 129.119L49.0244 116.505C36.4099 110.388 26.089 102.743 18.0616 93.5691C10.2254 84.395 6.30723 72.7361 6.30723 58.5926C6.30723 40.4354 12.3278 26.2919 24.3689 16.1621C36.6011 5.84114 54.0893 0.680664 76.8335 0.680664C84.8609 0.680664 92.2194 1.54074 98.9089 3.2609C105.789 4.98106 112.001 7.2746 117.544 10.1415C123.087 13.0085 127.96 16.2576 132.165 19.8891C134.558 21.7614 136.752 23.6621 138.748 25.5911C140.27 27.0619 141.031 27.7973 141.426 28.8721C141.75 29.7528 141.811 30.9155 141.58 31.8251C141.299 32.9352 140.539 33.8396 139.021 35.6485L123.443 54.202C121.5 56.5158 120.529 57.6727 119.439 58.1417C118.414 58.5826 117.486 58.6717 116.396 58.4338C115.237 58.1807 113.943 57.1329 111.357 55.0373C107.421 51.8484 103.368 49.2109 99.1955 47.1249C92.8883 43.6846 85.721 41.9644 77.6936 41.9644C69.8574 41.9644 64.2191 43.589 60.7788 46.8382C57.3385 50.0874 55.6183 53.91 55.6183 58.3059C55.6183 63.8486 58.103 68.2446 63.0723 71.4938C68.2328 74.743 75.1134 78.3744 83.7142 82.3881L100.629 90.4155C108.083 94.047 114.677 97.774 120.411 101.597C126.145 105.228 130.923 109.337 134.745 113.924C138.759 118.32 141.722 123.29 143.633 128.832C145.735 134.375 146.786 140.587 146.786 147.467C146.786 157.406 144.78 166.102 140.766 173.556C136.943 180.819 131.687 186.935 124.998 191.905C118.5 196.683 110.95 200.314 102.349 202.799C93.7484 205.284 84.7654 206.526 75.4001 206.526C58.7719 206.526 44.0551 203.755 31.2495 198.212C20.7948 193.531 11.9325 188.022 4.66267 181.684C3.09841 180.321 2.31628 179.639 1.86729 178.645C1.49407 177.819 1.34483 176.744 1.47886 175.847C1.64009 174.769 2.26122 173.816 3.50347 171.911L16.116 152.572Z" fill="black"/>
<path d="M185.744 63.4664C188.135 63.4664 189.33 63.4664 190.302 63.8997C191.159 64.2817 191.891 64.897 192.414 65.6753C193.008 66.5582 193.214 67.7356 193.625 70.0904L205.083 135.713C205.465 138.389 205.848 141.447 206.23 144.887C206.767 148.113 207.137 151.255 207.339 154.313C207.361 154.654 207.644 154.921 207.986 154.921C208.298 154.921 208.565 154.7 208.622 154.394C209.163 151.501 209.703 148.523 210.243 145.461C210.817 142.211 211.486 138.962 212.25 135.713L228.258 69.5842C228.787 67.3981 229.051 66.305 229.655 65.4905C230.187 64.7719 230.902 64.2093 231.726 63.8611C232.659 63.4664 233.784 63.4664 236.033 63.4664H266.325C268.615 63.4664 269.76 63.4664 270.705 63.8721C271.538 64.23 272.258 64.8078 272.788 65.5437C273.389 66.378 273.638 67.4956 274.134 69.7309L288.797 135.713C289.562 138.962 290.135 142.211 290.517 145.461C291.051 148.309 291.585 151.24 292.119 154.254C292.188 154.64 292.523 154.921 292.915 154.921C293.34 154.921 293.692 154.592 293.725 154.168C293.93 151.504 294.294 148.602 294.818 145.461C295.582 141.829 296.156 138.675 296.538 136L308.798 70.0052C309.23 67.6786 309.446 66.5153 310.042 65.644C310.567 64.8757 311.297 64.2693 312.148 63.8931C313.113 63.4664 314.297 63.4664 316.663 63.4664H344.807C348.291 63.4664 350.032 63.4664 351.225 64.1878C352.271 64.8201 353.049 65.8135 353.412 66.9803C353.827 68.3115 353.409 70.0024 352.574 73.3843L321.835 197.864C321.298 200.038 321.03 201.125 320.426 201.935C319.894 202.649 319.18 203.208 318.359 203.554C317.428 203.946 316.308 203.946 314.069 203.946H282.283C280.098 203.946 279.006 203.946 278.09 203.569C277.283 203.236 276.576 202.697 276.042 202.006C275.436 201.224 275.147 200.17 274.568 198.063L255.254 127.686C254.49 124.627 253.725 121.283 252.961 117.651C252.258 114.14 251.717 111.032 251.338 108.327C251.281 107.921 250.934 107.617 250.524 107.617C250.113 107.617 249.767 107.92 249.71 108.327C249.33 111.046 248.789 114.25 248.087 117.938C247.322 121.761 246.558 125.01 245.793 127.686L226.479 198.063C225.901 200.17 225.612 201.224 225.006 202.006C224.471 202.697 223.765 203.236 222.957 203.569C222.042 203.946 220.949 203.946 218.764 203.946H186.991C184.748 203.946 183.626 203.946 182.694 203.553C181.872 203.206 181.157 202.645 180.625 201.929C180.022 201.118 179.755 200.028 179.221 197.849L148.736 73.3693C147.909 69.9918 147.496 68.3031 147.911 66.9739C148.276 65.8089 149.054 64.8174 150.099 64.1863C151.291 63.4664 153.029 63.4664 156.507 63.4664H185.744Z" fill="black"/>
<path d="M2.795 252.06C3.16084 248.795 3.34377 247.163 3.92714 246.213C4.4956 245.287 5.09552 244.752 6.08095 244.294C7.09224 243.824 8.69036 243.83 11.8866 243.842C67.1584 244.052 383.72 242.649 387.225 242.649C389.71 242.649 392.29 242.267 394.966 241.503C397.833 240.738 400.509 239.305 402.993 237.202C405.669 235.291 408.058 232.711 410.161 229.461C412.454 226.212 414.27 222.103 415.608 217.134L418.006 208.85C418.286 207.882 418.426 207.398 418.468 206.907C418.505 206.471 418.485 206.032 418.409 205.602C418.322 205.117 418.138 204.647 417.771 203.709L367.131 74.3833C365.698 70.7224 364.981 68.892 365.294 67.4241C365.567 66.1404 366.335 65.0157 367.431 64.2929C368.683 63.4664 370.649 63.4664 374.581 63.4664H407.355C409.493 63.4664 410.562 63.4664 411.464 63.8308C412.259 64.1525 412.959 64.6736 413.495 65.344C414.102 66.1035 414.408 67.1278 415.02 69.1764L433.956 132.559C434.912 135.426 435.772 138.962 436.536 143.167C437.432 146.927 438.076 150.604 438.468 154.197C438.512 154.608 438.858 154.921 439.272 154.921C439.675 154.921 440.016 154.623 440.071 154.224C440.451 151.458 440.993 147.964 441.697 143.74C442.653 138.962 443.513 135.14 444.277 132.273L460.502 69.4654C461.057 67.3192 461.334 66.246 461.939 65.4476C462.472 64.7431 463.183 64.1926 463.999 63.8522C464.923 63.4664 466.031 63.4664 468.248 63.4664H498.001C501.739 63.4664 503.608 63.4664 504.837 64.2487C505.913 64.9336 506.686 66.0035 506.999 67.2397C507.356 68.6519 506.77 70.4266 505.597 73.9762L455.171 226.595C449.629 243.605 441.41 256.411 430.516 265.011C419.622 273.803 406.72 278.199 391.812 278.199C388.181 278.199 12.3278 279.867 8.88748 279.293C7.85732 279.122 6.87 278.933 5.92552 278.727C4.15183 278.34 3.26498 278.147 2.37765 277.465C1.67827 276.928 0.975915 275.949 0.691222 275.114C0.330025 274.055 0.449378 272.99 0.688083 270.86L2.795 252.06Z" fill="black"/>
<path d="M557.781 63.4664C560.581 63.4664 561.981 63.4664 563.051 64.0114C563.992 64.4907 564.757 65.2556 565.236 66.1964C565.781 67.266 565.781 68.6661 565.781 71.4664V81.6828C565.781 81.914 565.968 82.1014 566.2 82.1014C566.3 82.1014 566.396 82.0658 566.472 82.0006C567.803 80.8548 569.675 79.1682 572.088 76.9409C574.764 74.4563 577.918 72.0672 581.549 69.7736C585.372 67.4801 589.576 65.4732 594.164 63.7531C598.942 61.8418 603.911 60.8862 609.072 60.8862C617.099 60.8862 623.98 62.6063 629.714 66.0466C635.638 69.2958 640.512 73.9784 644.335 80.0946C648.157 86.2107 651.024 93.5691 652.936 102.17C654.847 110.58 655.802 119.849 655.802 129.979C655.802 140.3 654.656 150.143 652.362 159.508C650.069 168.683 646.628 176.806 642.041 183.877C637.454 190.758 631.72 196.301 624.84 200.506C618.15 204.519 610.314 206.526 601.331 206.526C596.935 206.526 593.017 206.048 589.577 205.093C586.136 204.328 582.983 203.277 580.116 201.939C577.249 200.601 574.764 199.263 572.662 197.925C570.582 196.602 568.689 195.372 566.983 194.235C566.947 194.211 566.905 194.198 566.861 194.198C566.74 194.198 566.641 194.297 566.641 194.418C566.641 196.68 566.641 199.569 566.641 203.086C566.832 206.526 566.928 209.011 566.928 210.54V270.199C566.928 273 566.928 274.4 566.383 275.469C565.904 276.41 565.139 277.175 564.198 277.654C563.128 278.199 561.728 278.199 558.928 278.199H528.484C525.683 278.199 524.283 278.199 523.214 277.654C522.273 277.175 521.508 276.41 521.029 275.469C520.484 274.4 520.484 273 520.484 270.199V71.4664C520.484 68.6661 520.484 67.266 521.029 66.1964C521.508 65.2556 522.273 64.4907 523.214 64.0114C524.283 63.4664 525.683 63.4664 528.484 63.4664H557.781ZM608.785 133.133C608.785 128.928 608.498 124.819 607.925 120.805C607.351 116.791 606.396 113.255 605.058 110.197C603.72 106.948 601.809 104.368 599.324 102.457C597.031 100.545 594.164 99.5897 590.723 99.5897C588.048 99.5897 585.467 100.163 582.983 101.31C580.689 102.265 578.395 103.508 576.102 105.037C574 106.566 572.088 108.19 570.368 109.911C569.404 110.875 568.53 111.809 567.746 112.713C567.207 113.334 566.938 113.645 566.68 114.117C566.474 114.494 566.273 115.031 566.182 115.451C566.068 115.976 566.068 116.468 566.068 117.451V157.752C566.068 159.034 566.068 159.675 566.237 160.308C566.378 160.838 566.652 161.428 566.966 161.878C567.341 162.416 567.783 162.789 568.667 163.536C570.811 165.347 573.099 167.063 575.529 168.683C578.969 170.785 582.887 171.836 587.283 171.836C595.31 171.836 600.853 168.205 603.911 160.942C607.16 153.488 608.785 144.218 608.785 133.133Z" fill="black"/>
<path d="M669.835 134.566C669.835 122.716 671.459 112.204 674.708 103.03C678.149 93.8558 682.927 86.2107 689.043 80.0946C695.35 73.7873 702.709 69.0091 711.118 65.7599C719.719 62.5107 729.18 60.8862 739.501 60.8862C751.351 60.8862 761.29 62.7974 769.317 66.62C777.344 70.4426 783.747 75.6031 788.525 82.1014C793.495 88.4087 796.935 95.6715 798.846 103.89C800.949 112.109 802 120.614 802 129.406V134.307C802 137.107 802 138.507 801.455 139.577C800.976 140.518 800.211 141.283 799.27 141.762C798.2 142.307 796.8 142.307 794 142.307H725.309C722.497 142.307 721.091 142.307 719.883 143.052C718.952 143.627 718.008 144.872 717.705 145.923C717.312 147.287 717.624 148.401 718.247 150.631C718.433 151.297 718.637 151.962 718.859 152.628C720.197 156.068 722.108 159.126 724.593 161.802C727.078 164.478 730.231 166.676 734.054 168.396C737.876 170.116 742.368 170.976 747.528 170.976C754.6 170.976 760.716 169.829 765.877 167.536C768.745 166.306 771.641 164.665 774.565 162.612C777.666 160.434 779.216 159.345 780.466 159.196C781.658 159.053 782.594 159.253 783.625 159.869C784.705 160.514 785.568 161.958 787.295 164.846L795.385 178.374C796.611 180.426 797.224 181.451 797.336 182.56C797.43 183.495 797.224 184.557 796.786 185.389C796.268 186.375 795.377 187.049 793.596 188.398C787.099 193.318 780.248 197.354 773.044 200.506C764.061 204.519 753.836 206.526 742.368 206.526C732.812 206.526 723.637 205.475 714.845 203.372C706.245 201.079 698.6 197.161 691.91 191.618C685.221 186.075 679.869 178.717 675.855 169.543C671.842 160.369 669.835 148.71 669.835 134.566ZM749.666 116.505C752.511 116.505 753.933 116.505 755.151 115.742C756.079 115.16 757.035 113.87 757.322 112.813C757.698 111.426 757.369 110.342 756.71 108.175C755.743 104.991 754.307 102.129 752.402 99.5897C749.153 95.0026 744.279 92.709 737.781 92.709C733.003 92.709 728.607 94.5248 724.593 98.1562C722.109 100.404 720.21 103.603 718.898 107.755C718.134 110.169 717.752 111.376 718.12 112.775C718.407 113.869 719.33 115.128 720.287 115.733C721.51 116.505 723.032 116.505 726.077 116.505H749.666Z" fill="black"/>
</svg>
